<svg width="264" height="280" viewBox="0 0 264 280" fill="none" xmlns="http://www.w3.org/2000/svg">
<path fill-rule="evenodd" clip-rule="evenodd" d="M132 36C101.072 36 76 61.0721 76 92V98.1659C70.3246 99.1181 66 104.054 66 110V124C66 130.052 70.4803 135.058 76.3051 135.881C78.3722 155.687 90.7626 172.422 108 180.611V199H104C64.2355 199 32 231.236 32 271V280H232V271C232 231.236 199.764 199 160 199H156V180.611C173.237 172.422 185.628 155.687 187.695 135.881C193.52 135.058 198 130.052 198 124V110C198 104.054 193.675 99.1181 188 98.1659V92C188 61.0721 162.928 36 132 36Z" fill="#D0C6AC"/>
<mask id="mask0_0_20" style="mask-type:luminance" maskUnits="userSpaceOnUse" x="32" y="36" width="200" height="244">
<path fill-rule="evenodd" clip-rule="evenodd" d="M132 36C101.072 36 76 61.0721 76 92V98.1659C70.3246 99.1181 66 104.054 66 110V124C66 130.052 70.4803 135.058 76.3051 135.881C78.3722 155.687 90.7626 172.422 108 180.611V199H104C64.2355 199 32 231.236 32 271V280H232V271C232 231.236 199.764 199 160 199H156V180.611C173.237 172.422 185.628 155.687 187.695 135.881C193.52 135.058 198 130.052 198 124V110C198 104.054 193.675 99.1181 188 98.1659V92C188 61.0721 162.928 36 132 36Z" fill="white"/>
</mask>
<g mask="url(#mask0_0_20)">
<rect y="36" width="264" height="244" fill="#D08B5B"/>
<path fill-rule="evenodd" clip-rule="evenodd" d="M76 130V138C76 168.928 101.072 194 132 194C162.928 194 188 168.928 188 138V130C188 160.928 162.928 186 132 186C101.072 186 76 160.928 76 130Z" fill="black" fill-opacity="0.1"/>
</g>
<path fill-rule="evenodd" clip-rule="evenodd" d="M92.6808 199.936C58.2939 205.366 32 235.138 32 271.052V280H232V271.052C232 235.138 205.706 205.366 171.319 199.936C170.421 204.993 167.898 209.81 163.764 213.539L134.679 239.767C133.157 241.14 130.843 241.14 129.321 239.767L100.236 213.539C96.1016 209.81 93.5787 204.993 92.6808 199.936Z" fill="#E6E6E6"/>
<mask id="mask1_0_20" style="mask-type:luminance" maskUnits="userSpaceOnUse" x="32" y="199" width="200" height="81">
<path fill-rule="evenodd" clip-rule="evenodd" d="M92.6808 199.936C58.2939 205.366 32 235.138 32 271.052V280H232V271.052C232 235.138 205.706 205.366 171.319 199.936C170.421 204.993 167.898 209.81 163.764 213.539L134.679 239.767C133.157 241.14 130.843 241.14 129.321 239.767L100.236 213.539C96.1016 209.81 93.5787 204.993 92.6808 199.936Z" fill="white"/>
</mask>
<g mask="url(#mask1_0_20)">
<rect y="170" width="264" height="110" fill="#262E33"/>
</g>
<path fill-rule="evenodd" clip-rule="evenodd" d="M118 149C118 156.732 124.268 163 132 163V163C139.732 163 146 156.732 146 149" fill="black" fill-opacity="0.7"/>
<path fill-rule="evenodd" clip-rule="evenodd" d="M120 130C120 134.418 125.373 138 132 138V138C138.627 138 144 134.418 144 130" fill="black" fill-opacity="0.16"/>
<circle cx="106" cy="112" r="6" fill="black" fill-opacity="0.6"/>
<circle cx="158" cy="112" r="6" fill="black" fill-opacity="0.6"/>
<path d="M91.6302 99.1586C95.5451 93.6499 106.278 90.5608 115.523 92.8312C116.596 93.0946 117.679 92.4386 117.942 91.3659C118.206 90.2932 117.55 89.21 116.477 88.9466C105.74 86.31 93.3121 89.887 88.3697 96.8414C87.7299 97.7418 87.941 98.9904 88.8414 99.6303C89.7418 100.27 90.9904 100.059 91.6302 99.1586Z" fill="black" fill-opacity="0.6"/>
<path d="M172.37 99.1586C168.455 93.6499 157.722 90.5608 148.477 92.8312C147.405 93.0946 146.321 92.4386 146.058 91.3659C145.795 90.2932 146.451 89.21 147.523 88.9466C158.26 86.31 170.688 89.887 175.631 96.8414C176.27 97.7418 176.059 98.9904 175.159 99.6303C174.258 100.27 173.01 100.059 172.37 99.1586Z" fill="black" fill-opacity="0.6"/>
<mask id="mask2_0_20" style="mask-type:luminance" maskUnits="userSpaceOnUse" x="0" y="0" width="264" height="280">
<rect width="264" height="280" fill="white"/>
</mask>
<g mask="url(#mask2_0_20)">
<path fill-rule="evenodd" clip-rule="evenodd" d="M149.221 170.169C146.737 172.463 144.092 173.494 140.748 172.773C140.172 172.649 137.826 168.235 132 168.235C126.174 168.235 123.828 172.649 123.252 172.773C119.908 173.494 117.262 172.463 114.779 170.169C110.11 165.856 106.227 159.908 108.56 153.419C109.776 150.037 111.754 146.324 115.351 145.246C119.193 144.096 124.586 145.244 128.457 144.458C129.712 144.204 131.082 143.751 132 143C132.918 143.751 134.288 144.204 135.542 144.458C139.413 145.244 144.807 144.096 148.648 145.246C152.246 146.324 154.224 150.037 155.44 153.419C157.773 159.908 153.89 165.856 149.221 170.169M187.413 98C184.044 106.4 185.345 116.858 184.721 125.676C184.215 132.843 182.726 143.586 176.437 148.215C173.222 150.582 167.368 154.56 163.166 153.45C160.274 152.686 159.965 144.29 156.164 141.147C151.853 137.582 146.469 136.016 141.04 136.258C138.698 136.362 133.961 136.337 132 138.16C130.039 136.337 125.302 136.362 122.96 136.258C117.531 136.016 112.147 137.582 107.836 141.147C104.035 144.29 103.726 152.686 100.834 153.45C96.632 154.56 90.7785 150.582 87.5624 148.215C81.2736 143.586 79.7853 132.843 79.2781 125.676C78.6548 116.858 79.9562 106.4 76.5865 98C74.9472 98 76.0284 114.129 76.0284 114.129V134.485C76.0597 149.773 85.4954 172.655 106.416 181.393C111.533 183.53 123.122 187 132 187C140.878 187 152.467 183.86 157.584 181.723C178.504 172.986 187.94 149.773 187.972 134.485V114.129C187.972 114.129 189.053 98 187.413 98" fill="#331B0C"/>
<mask id="mask3_0_20" style="mask-type:luminance" maskUnits="userSpaceOnUse" x="75" y="98" width="114" height="89">
<path fill-rule="evenodd" clip-rule="evenodd" d="M149.221 170.169C146.737 172.463 144.092 173.494 140.748 172.773C140.172 172.649 137.826 168.235 132 168.235C126.174 168.235 123.828 172.649 123.252 172.773C119.908 173.494 117.262 172.463 114.779 170.169C110.11 165.856 106.227 159.908 108.56 153.419C109.776 150.037 111.754 146.324 115.351 145.246C119.193 144.096 124.586 145.244 128.457 144.458C129.712 144.204 131.082 143.751 132 143C132.918 143.751 134.288 144.204 135.542 144.458C139.413 145.244 144.807 144.096 148.648 145.246C152.246 146.324 154.224 150.037 155.44 153.419C157.773 159.908 153.89 165.856 149.221 170.169M187.413 98C184.044 106.4 185.345 116.858 184.721 125.676C184.215 132.843 182.726 143.586 176.437 148.215C173.222 150.582 167.368 154.56 163.166 153.45C160.274 152.686 159.965 144.29 156.164 141.147C151.853 137.582 146.469 136.016 141.04 136.258C138.698 136.362 133.961 136.337 132 138.16C130.039 136.337 125.302 136.362 122.96 136.258C117.531 136.016 112.147 137.582 107.836 141.147C104.035 144.29 103.726 152.686 100.834 153.45C96.632 154.56 90.7785 150.582 87.5624 148.215C81.2736 143.586 79.7853 132.843 79.2781 125.676C78.6548 116.858 79.9562 106.4 76.5865 98C74.9472 98 76.0284 114.129 76.0284 114.129V134.485C76.0597 149.773 85.4954 172.655 106.416 181.393C111.533 183.53 123.122 187 132 187C140.878 187 152.467 183.86 157.584 181.723C178.504 172.986 187.94 149.773 187.972 134.485V114.129C187.972 114.129 189.053 98 187.413 98" fill="white"/>
</mask>
<g mask="url(#mask3_0_20)">
<rect x="49" y="72" width="166" height="152" fill="#724133"/>
</g>
<path fill-rule="evenodd" clip-rule="evenodd" d="M159.395 39.781C156.318 36.6928 153.119 43.6387 151.623 45.4281C148.013 49.7487 144.54 54.1829 140.868 58.4519C133.616 66.8824 126.439 75.3743 119.234 83.8402C118.14 85.1257 118.273 85.2649 116.837 85.3886C115.886 85.4709 114.563 84.9802 113.574 84.9257C110.824 84.7746 108.112 85.2348 105.436 85.8227C100.091 86.9962 94.4265 88.9291 89.7891 91.8983C88.5718 92.6773 87.7875 93.5972 86.4671 93.8412C85.3184 94.0534 83.7944 93.6296 82.6223 93.5195C80.5413 93.3237 77.5379 92.4726 75.4954 92.9137C72.9028 93.4738 71.9174 96.611 74.5605 98.0004C76.5703 99.0564 80.5706 98.4762 82.8236 98.6448C85.3971 98.8372 84.6121 98.7043 84.2474 101.164C83.7239 104.698 84.5986 108.646 86.0886 111.878C89.5483 119.383 99.1229 127.335 107.855 126.603C115.142 125.992 121.527 119.413 124.519 113.1C126.051 109.869 126.955 106.192 127.25 102.628C127.439 100.362 127.334 97.958 126.684 95.7632C126.363 94.6784 125.854 93.5555 125.308 92.5695C124.866 91.771 122.909 89.9204 122.789 89.1166C122.556 87.5602 126.973 83.3875 127.816 82.3443C131.789 77.4276 135.78 72.5321 139.722 67.5889C143.603 62.7202 147.506 57.864 151.49 53.0786C153.294 50.9099 162.318 42.7148 159.395 39.781" fill="#28354B"/>
</g>
</svg>
