<svg width="264" height="280" viewBox="0 0 264 280" fill="none" xmlns="http://www.w3.org/2000/svg">
<path fill-rule="evenodd" clip-rule="evenodd" d="M132 36C101.072 36 76 61.0721 76 92V98.1659C70.3246 99.1181 66 104.054 66 110V124C66 130.052 70.4803 135.058 76.3051 135.881C78.3722 155.687 90.7626 172.422 108 180.611V199H104C64.2355 199 32 231.236 32 271V280H232V271C232 231.236 199.764 199 160 199H156V180.611C173.237 172.422 185.628 155.687 187.695 135.881C193.52 135.058 198 130.052 198 124V110C198 104.054 193.675 99.1181 188 98.1659V92C188 61.0721 162.928 36 132 36Z" fill="#D0C6AC"/>
<mask id="mask0_2_1486" style="mask-type:luminance" maskUnits="userSpaceOnUse" x="32" y="36" width="200" height="244">
<path fill-rule="evenodd" clip-rule="evenodd" d="M132 36C101.072 36 76 61.0721 76 92V98.1659C70.3246 99.1181 66 104.054 66 110V124C66 130.052 70.4803 135.058 76.3051 135.881C78.3722 155.687 90.7626 172.422 108 180.611V199H104C64.2355 199 32 231.236 32 271V280H232V271C232 231.236 199.764 199 160 199H156V180.611C173.237 172.422 185.628 155.687 187.695 135.881C193.52 135.058 198 130.052 198 124V110C198 104.054 193.675 99.1181 188 98.1659V92C188 61.0721 162.928 36 132 36Z" fill="white"/>
</mask>
<g mask="url(#mask0_2_1486)">
<rect y="36" width="264" height="244" fill="#D08B5B"/>
<path fill-rule="evenodd" clip-rule="evenodd" d="M76 130V138C76 168.928 101.072 194 132 194C162.928 194 188 168.928 188 138V130C188 160.928 162.928 186 132 186C101.072 186 76 160.928 76 130Z" fill="black" fill-opacity="0.1"/>
</g>
<path fill-rule="evenodd" clip-rule="evenodd" d="M132 227.052C146.912 227.052 159 215.859 159 202.052C159 201.036 158.935 200.035 158.808 199.052H160C199.764 199.052 232 231.287 232 271.052V280H32V271.052C32 231.287 64.2355 199.052 104 199.052H105.192C105.065 200.035 105 201.036 105 202.052C105 215.859 117.088 227.052 132 227.052Z" fill="#E6E6E6"/>
<mask id="mask1_2_1486" style="mask-type:luminance" maskUnits="userSpaceOnUse" x="32" y="199" width="200" height="81">
<path fill-rule="evenodd" clip-rule="evenodd" d="M132 227.052C146.912 227.052 159 215.859 159 202.052C159 201.036 158.935 200.035 158.808 199.052H160C199.764 199.052 232 231.287 232 271.052V280H32V271.052C32 231.287 64.2355 199.052 104 199.052H105.192C105.065 200.035 105 201.036 105 202.052C105 215.859 117.088 227.052 132 227.052Z" fill="white"/>
</mask>
<g mask="url(#mask1_2_1486)">
<rect y="170" width="264" height="110" fill="#3C4F5C"/>
</g>
<path fill-rule="evenodd" clip-rule="evenodd" d="M108 191.571C101.233 196.174 97 202.74 97 210.028C97 217.426 101.362 224.08 108.308 228.692L114.421 223.876L119 224.208L118 221.057L118.078 220.995C111.978 217.853 108 212.7 108 206.877V191.571ZM156 206.877C156 212.7 152.022 217.853 145.922 220.995L146 221.057L145 224.208L149.579 223.876L155.229 228.327C161.863 223.733 166 217.233 166 210.028C166 203.106 162.182 196.835 156 192.279V206.877Z" fill="#F2F2F2"/>
<path fill-rule="evenodd" clip-rule="evenodd" d="M118 149C118 156.732 124.268 163 132 163V163C139.732 163 146 156.732 146 149" fill="black" fill-opacity="0.7"/>
<path fill-rule="evenodd" clip-rule="evenodd" d="M120 130C120 134.418 125.373 138 132 138V138C138.627 138 144 134.418 144 130" fill="black" fill-opacity="0.16"/>
<circle cx="106" cy="112" r="6" fill="black" fill-opacity="0.6"/>
<circle cx="158" cy="112" r="6" fill="black" fill-opacity="0.6"/>
<path d="M91.6302 99.1586C95.5451 93.6499 106.278 90.5608 115.523 92.8312C116.596 93.0946 117.679 92.4386 117.942 91.3659C118.206 90.2932 117.55 89.21 116.477 88.9466C105.74 86.31 93.3121 89.887 88.3697 96.8414C87.7299 97.7418 87.941 98.9904 88.8414 99.6303C89.7418 100.27 90.9904 100.059 91.6302 99.1586Z" fill="black" fill-opacity="0.6"/>
<path d="M172.37 99.1586C168.455 93.6499 157.722 90.5608 148.477 92.8312C147.405 93.0946 146.321 92.4386 146.058 91.3659C145.795 90.2932 146.451 89.21 147.523 88.9466C158.26 86.31 170.688 89.887 175.631 96.8414C176.27 97.7418 176.059 98.9904 175.159 99.6303C174.258 100.27 173.01 100.059 172.37 99.1586Z" fill="black" fill-opacity="0.6"/>
<mask id="mask2_2_1486" style="mask-type:luminance" maskUnits="userSpaceOnUse" x="0" y="0" width="264" height="280">
<rect width="264" height="280" fill="white"/>
</mask>
<g mask="url(#mask2_2_1486)">
<path fill-rule="evenodd" clip-rule="evenodd" d="M182.68 38.9488C188.086 33.9986 189.387 23.9615 186.318 17.4493C182.549 9.45385 174.901 8.45218 167.572 11.9687C160.664 15.2836 154.515 16.3879 146.95 14.7817C139.692 13.2407 132.806 10.5226 125.303 10.0762C112.978 9.34292 101.003 13.9146 92.6031 23.1293C91.0004 24.8872 89.7089 26.8972 88.4883 28.9344C87.5115 30.5644 86.4105 32.3134 85.995 34.1922C85.7974 35.0856 86.1653 37.2899 85.7204 38.0219C85.2391 38.8123 83.4245 39.5373 82.651 40.1239C81.0843 41.3125 79.7268 42.654 78.4714 44.1711C75.8053 47.3927 74.3377 50.7577 73.1035 54.7428C69.0005 67.9878 68.6528 83.7413 73.9569 96.7468C74.6639 98.4811 76.8551 102.099 78.1432 98.3848C78.3977 97.6508 77.8087 95.1908 77.81 94.4502C77.8146 91.7301 79.3161 73.7214 85.8571 63.633C87.9862 60.3492 97.8299 48.0522 99.8405 47.9536C100.906 49.6464 111.721 60.4625 139.783 59.1949C152.445 58.623 162.183 52.9341 164.521 50.4681C165.549 56.0009 177.513 64.284 179.336 67.6922C184.603 77.5377 185.771 97.9957 187.781 97.9573C189.791 97.919 191.234 92.7198 191.648 91.7271C194.72 84.3517 195.243 75.0948 194.915 67.1684C194.488 56.9664 190.277 45.942 182.68 38.9488Z" fill="#28354B"/>
<mask id="mask3_2_1486" style="mask-type:luminance" maskUnits="userSpaceOnUse" x="70" y="10" width="125" height="90">
<path fill-rule="evenodd" clip-rule="evenodd" d="M182.68 38.9488C188.086 33.9986 189.387 23.9615 186.318 17.4493C182.549 9.45385 174.901 8.45218 167.572 11.9687C160.664 15.2836 154.515 16.3879 146.95 14.7817C139.692 13.2407 132.806 10.5226 125.303 10.0762C112.978 9.34292 101.003 13.9146 92.6031 23.1293C91.0004 24.8872 89.7089 26.8972 88.4883 28.9344C87.5115 30.5644 86.4105 32.3134 85.995 34.1922C85.7974 35.0856 86.1653 37.2899 85.7204 38.0219C85.2391 38.8123 83.4245 39.5373 82.651 40.1239C81.0843 41.3125 79.7268 42.654 78.4714 44.1711C75.8053 47.3927 74.3377 50.7577 73.1035 54.7428C69.0005 67.9878 68.6528 83.7413 73.9569 96.7468C74.6639 98.4811 76.8551 102.099 78.1432 98.3848C78.3977 97.6508 77.8087 95.1908 77.81 94.4502C77.8146 91.7301 79.3161 73.7214 85.8571 63.633C87.9862 60.3492 97.8299 48.0522 99.8405 47.9536C100.906 49.6464 111.721 60.4625 139.783 59.1949C152.445 58.623 162.183 52.9341 164.521 50.4681C165.549 56.0009 177.513 64.284 179.336 67.6922C184.603 77.5377 185.771 97.9957 187.781 97.9573C189.791 97.919 191.234 92.7198 191.648 91.7271C194.72 84.3517 195.243 75.0948 194.915 67.1684C194.488 56.9664 190.277 45.942 182.68 38.9488Z" fill="white"/>
</mask>
<g mask="url(#mask3_2_1486)">
<rect width="264" height="280" fill="#724133"/>
</g>
<g filter="url(#filter0_d_2_1486)">
<path fill-rule="evenodd" clip-rule="evenodd" d="M98.2421 133H101C115.721 133 126 124.569 126 112.5C126 102.127 124.183 92 102.47 92H99.5299C77.817 92 76 102.127 76 112.5C76 125.336 84.3147 133 98.2421 133ZM80 113.502C80 104.841 80 98 99.3854 98H102.615C122 98 122 104.841 122 113.502C122 122.627 113.365 129 101 129H97.9709C83.1163 129 80 120.572 80 113.502Z" fill="#252C2F"/>
<path fill-rule="evenodd" clip-rule="evenodd" d="M160.242 133H163C177.721 133 188 124.569 188 112.5C188 102.127 186.183 92 164.47 92H161.53C139.817 92 138 102.127 138 112.5C138 125.336 146.315 133 160.242 133ZM142 113.502C142 104.841 142 98 161.385 98H164.615C184 98 184 104.841 184 113.502C184 122.627 175.365 129 163 129H159.971C145.119 129 142 120.572 142 113.502Z" fill="#252C2F"/>
<path d="M69.9545 97.7716C70.6459 97.0963 78.2095 92 99.5 92C117.351 92 121.13 93.8527 126.85 96.6519L127.269 96.8585C127.667 96.999 129.7 97.6898 132.079 97.7658C134.246 97.6728 136.1 97.0854 136.642 96.8972C143.17 93.7221 149.561 92 164.5 92C185.79 92 193.354 97.0963 194.045 97.7716C195.679 97.7716 197 99.0615 197 100.657V103.543C197 105.139 195.679 106.429 194.045 106.429C194.045 106.429 187.144 106.429 187.144 109.315C187.144 112.2 185.182 105.139 185.182 103.543V100.732C181.579 99.3534 175.128 96.7862 164.5 96.7862C152.658 96.7862 146.761 98.886 141.702 100.971L141.759 101.108L141.756 103.094L139.539 108.444L136.8 107.361C136.556 107.264 136.028 107.09 135.296 106.91C133.256 106.407 131.159 106.254 129.304 106.634C128.624 106.774 127.992 106.984 127.413 107.267L124.77 108.558L122.127 103.396L122.244 101.102L122.325 100.907C117.962 98.8739 113.939 96.7862 99.5 96.7862C88.8721 96.7862 82.4221 99.3524 78.8182 100.731V103.543C78.8182 105.139 75.8636 112.2 75.8636 109.315C75.8636 106.429 69.9545 106.429 69.9545 106.429C68.3236 106.429 67 105.139 67 103.543V100.657C67 99.0615 68.3236 97.7716 69.9545 97.7716Z" fill="#252C2F"/>
</g>
</g>
<defs>
<filter id="filter0_d_2_1486" x="67" y="92" width="130" height="43" filterUnits="userSpaceOnUse" color-interpolation-filters="sRGB">
<feFlood flood-opacity="0" result="BackgroundImageFix"/>
<feColorMatrix in="SourceAlpha" type="matrix" values="0 0 0 0 0 0 0 0 0 0 0 0 0 0 0 0 0 0 127 0" result="hardAlpha"/>
<feOffset dy="2"/>
<feColorMatrix type="matrix" values="0 0 0 0 0 0 0 0 0 0 0 0 0 0 0 0 0 0 0.2 0"/>
<feBlend mode="normal" in2="BackgroundImageFix" result="effect1_dropShadow_2_1486"/>
<feBlend mode="normal" in="SourceGraphic" in2="effect1_dropShadow_2_1486" result="shape"/>
</filter>
</defs>
</svg>
