<svg width="264" height="280" viewBox="0 0 264 280" fill="none" xmlns="http://www.w3.org/2000/svg">
<path fill-rule="evenodd" clip-rule="evenodd" d="M132 36C101.072 36 76 61.0721 76 92V98.1659C70.3246 99.1181 66 104.054 66 110V124C66 130.052 70.4803 135.058 76.3051 135.881C78.3722 155.687 90.7626 172.422 108 180.611V199H104C64.2355 199 32 231.236 32 271V280H232V271C232 231.236 199.764 199 160 199H156V180.611C173.237 172.422 185.628 155.687 187.695 135.881C193.52 135.058 198 130.052 198 124V110C198 104.054 193.675 99.1181 188 98.1659V92C188 61.0721 162.928 36 132 36Z" fill="#D0C6AC"/>
<mask id="mask0_0_8" style="mask-type:luminance" maskUnits="userSpaceOnUse" x="32" y="36" width="200" height="244">
<path fill-rule="evenodd" clip-rule="evenodd" d="M132 36C101.072 36 76 61.0721 76 92V98.1659C70.3246 99.1181 66 104.054 66 110V124C66 130.052 70.4803 135.058 76.3051 135.881C78.3722 155.687 90.7626 172.422 108 180.611V199H104C64.2355 199 32 231.236 32 271V280H232V271C232 231.236 199.764 199 160 199H156V180.611C173.237 172.422 185.628 155.687 187.695 135.881C193.52 135.058 198 130.052 198 124V110C198 104.054 193.675 99.1181 188 98.1659V92C188 61.0721 162.928 36 132 36Z" fill="white"/>
</mask>
<g mask="url(#mask0_0_8)">
<rect y="36" width="264" height="244" fill="#FFDBB4"/>
<path fill-rule="evenodd" clip-rule="evenodd" d="M76 130V138C76 168.928 101.072 194 132 194C162.928 194 188 168.928 188 138V130C188 160.928 162.928 186 132 186C101.072 186 76 160.928 76 130Z" fill="black" fill-opacity="0.1"/>
</g>
<path fill-rule="evenodd" clip-rule="evenodd" d="M132.5 224C151.002 224 166 214.374 166 202.5C166 201.401 165.872 200.322 165.624 199.268C202.76 202.137 232 233.18 232 271.052V280H32V271.052C32 232.835 61.7752 201.572 99.3929 199.197C99.1342 200.274 99 201.377 99 202.5C99 214.374 113.998 224 132.5 224Z" fill="#E6E6E6"/>
<mask id="mask1_0_8" style="mask-type:luminance" maskUnits="userSpaceOnUse" x="32" y="199" width="200" height="81">
<path fill-rule="evenodd" clip-rule="evenodd" d="M132.5 224C151.002 224 166 214.374 166 202.5C166 201.401 165.872 200.322 165.624 199.268C202.76 202.137 232 233.18 232 271.052V280H32V271.052C32 232.835 61.7752 201.572 99.3929 199.197C99.1342 200.274 99 201.377 99 202.5C99 214.374 113.998 224 132.5 224Z" fill="white"/>
</mask>
<g mask="url(#mask1_0_8)">
<rect y="170" width="264" height="110" fill="#FF5C5C"/>
<path fill-rule="evenodd" clip-rule="evenodd" d="M142.282 247.929C141.984 250.706 136.589 252.203 134.61 250.377C133.698 249.535 133.683 247.803 133.482 246.675C133.101 244.542 132.826 242.417 132.731 240.252C132.673 238.927 132.325 237.867 133.775 237.67C134.658 237.551 135.568 238.138 136.29 238.603C138.737 240.176 142.62 244.741 142.282 247.929M129.881 242.076C130.166 244.901 131.201 249.815 128.946 252.181C126.93 254.296 122.786 252.199 122.163 249.708C121.39 246.619 124.438 242.927 126.308 240.839C126.882 240.197 128.152 238.426 129.144 239.019C129.526 239.246 129.837 241.63 129.881 242.076M131.321 253.106C131.968 251.583 138.234 256.125 135.274 258.285C134.792 258.638 131.115 259.751 130.41 259.227C128.925 258.124 130.841 254.263 131.321 253.106M150.325 245.527C149.882 230.051 130.065 225.687 119.476 234.504C115.427 237.876 113.113 242.004 113.007 247.283C112.917 251.754 113.626 255.972 117.041 259.047C118.522 260.38 119.5 261.196 120.286 263.017C121.11 264.923 121.485 267.352 123.028 268.85C123.879 269.675 125.118 270.342 126.294 269.809C128.456 268.83 127.764 265.832 128.419 264.161C130.456 269.129 135.63 270.714 136.569 264.41C137.6 266.229 140.295 268.61 142.268 266.62C143.081 265.8 143.203 264.471 143.341 263.393C143.586 261.481 143.16 260.729 144.696 259.418C148.735 255.968 150.469 250.746 150.325 245.527" fill="white"/>
</g>
<path fill-rule="evenodd" clip-rule="evenodd" d="M118 149C118 156.732 124.268 163 132 163V163C139.732 163 146 156.732 146 149" fill="black" fill-opacity="0.7"/>
<path fill-rule="evenodd" clip-rule="evenodd" d="M120 130C120 134.418 125.373 138 132 138V138C138.627 138 144 134.418 144 130" fill="black" fill-opacity="0.16"/>
<rect width="112" height="44" transform="translate(76 90)" fill="#D08B5B"/>
<circle cx="106" cy="112" r="6" fill="black" fill-opacity="0.6"/>
<path fill-rule="evenodd" clip-rule="evenodd" d="M146.61 114.955C148.187 111.037 152.149 108.105 156.971 107.768C161.775 107.432 166.094 109.766 168.209 113.404C168.837 114.485 168.119 115.456 167.282 114.832C164.69 112.901 161.126 111.831 157.274 112.101C153.543 112.362 150.253 113.83 147.962 115.988C147.124 116.777 146.148 116.101 146.61 114.955Z" fill="black" fill-opacity="0.6"/>
<path d="M91.6303 99.1586C95.5452 93.6499 106.278 90.5608 115.523 92.8312C116.596 93.0946 117.679 92.4386 117.942 91.3659C118.206 90.2932 117.55 89.21 116.477 88.9466C105.74 86.31 93.3121 89.887 88.3698 96.8414C87.7299 97.7418 87.9411 98.9904 88.8414 99.6303C89.7418 100.27 90.9904 100.059 91.6303 99.1586Z" fill="black" fill-opacity="0.6"/>
<path d="M172.37 99.1586C168.455 93.6499 157.722 90.5608 148.477 92.8312C147.405 93.0946 146.321 92.4386 146.058 91.3659C145.795 90.2932 146.451 89.21 147.523 88.9466C158.26 86.31 170.688 89.887 175.631 96.8414C176.27 97.7418 176.059 98.9904 175.159 99.6303C174.259 100.27 173.01 100.059 172.37 99.1586Z" fill="black" fill-opacity="0.6"/>
<mask id="mask2_0_8" style="mask-type:luminance" maskUnits="userSpaceOnUse" x="0" y="0" width="264" height="280">
<rect width="264" height="280" fill="white"/>
</mask>
<g mask="url(#mask2_0_8)">
<path fill-rule="evenodd" clip-rule="evenodd" d="M66 113C76.859 90.2982 100.67 81.4034 121.44 73.6445C134.76 68.6688 146.829 64.1602 153.43 56.7771C155.663 58.8041 158.192 60.8345 160.854 62.9707L160.854 62.9708C171.063 71.1658 183.212 80.9172 188 98V98.1659C192.989 99.0029 196.934 102.918 197.815 107.892V86.0409C197.815 84.7491 197.762 83.4692 197.657 82.2035C202.2 65.1974 194.565 44.4151 185 35C175.519 26.1821 162.698 22.6811 154.047 26.5221C142.442 8.98173 108.905 13.2404 89 28C75.7797 37.8076 64.2128 53.7208 61.155 73.7509C60.3994 77.0584 60 80.504 60 84.0463V170V172.541C59.8081 204.056 52.6057 255.038 39 263C101.358 279.797 110.93 224.855 108 181V180.611C90.4692 172.283 77.9518 155.115 76.2086 134.867C70.4309 134.002 66 129.019 66 123V113ZM156 180.611C173.531 172.283 186.048 155.115 187.791 134.867C192.879 134.106 196.922 130.151 197.815 125.108V126.47C197.815 142.299 201.573 157.901 208.778 171.994L235.727 224.701C242.952 238.833 240.403 254.442 231.79 265.462C228.962 228.285 197.901 199 160 199H156V180.611Z" fill="#272C2E"/>
<mask id="mask3_0_8" style="mask-type:luminance" maskUnits="userSpaceOnUse" x="39" y="15" width="201" height="252">
<path fill-rule="evenodd" clip-rule="evenodd" d="M66 113C76.859 90.2982 100.67 81.4034 121.44 73.6445C134.76 68.6688 146.829 64.1602 153.43 56.7771C155.663 58.8041 158.192 60.8345 160.854 62.9707L160.854 62.9708C171.063 71.1658 183.212 80.9172 188 98V98.1659C192.989 99.0029 196.934 102.918 197.815 107.892V86.0409C197.815 84.7491 197.762 83.4692 197.657 82.2035C202.2 65.1974 194.565 44.4151 185 35C175.519 26.1821 162.698 22.6811 154.047 26.5221C142.442 8.98173 108.905 13.2404 89 28C75.7797 37.8076 64.2128 53.7208 61.155 73.7509C60.3994 77.0584 60 80.504 60 84.0463V170V172.541C59.8081 204.056 52.6057 255.038 39 263C101.358 279.797 110.93 224.855 108 181V180.611C90.4692 172.283 77.9518 155.115 76.2086 134.867C70.4309 134.002 66 129.019 66 123V113ZM156 180.611C173.531 172.283 186.048 155.115 187.791 134.867C192.879 134.106 196.922 130.151 197.815 125.108V126.47C197.815 142.299 201.573 157.901 208.778 171.994L235.727 224.701C242.952 238.833 240.403 254.442 231.79 265.462C228.962 228.285 197.901 199 160 199H156V180.611Z" fill="white"/>
</mask>
<g mask="url(#mask3_0_8)">
<rect width="264" height="280" fill="#4A312C"/>
</g>
<path fill-rule="evenodd" clip-rule="evenodd" d="M121.44 73.6444C100.67 81.4033 76.859 90.2981 66 113C76.859 93.2987 100.67 85.5796 121.44 78.8462C134.76 74.5282 146.829 70.6156 153.43 64.2084C156.081 66.2966 159.149 68.2685 162.36 70.3319C172.204 76.6574 183.385 83.842 187.963 97.8687C183.15 80.8672 171.037 71.1447 160.854 62.9707C158.192 60.8345 155.663 58.8041 153.43 56.7771C146.829 64.1602 134.76 68.6688 121.44 73.6444Z" fill="black" fill-opacity="0.16"/>
<g filter="url(#filter0_d_0_8)">
<path d="M132 98.1111C120.963 98.1111 119.371 89.0266 96.6706 87.7407C73.9855 86.7168 66.8152 93.4495 66.7765 98.1111C66.8132 102.404 65.6477 113.561 80.3647 126.63C95.1368 142.142 110.27 136.882 115.694 131.815C121.135 129.473 127.34 108.46 132 108.481C136.66 108.503 142.865 129.473 148.306 131.815C153.73 136.882 168.863 142.142 183.635 126.63C198.352 113.561 197.187 102.404 197.224 98.1111C197.185 93.4495 190.014 86.7168 167.329 87.7407C144.629 89.0266 143.037 98.1111 132 98.1111Z" fill="#F4F4F4"/>
<path d="M121.129 108.481C121.51 100.823 108.216 92.6424 93.9529 92.9259C79.6973 93.2245 77.8418 102.379 77.6471 105.889C77.2982 114.022 86.0145 132.304 102.106 131.815C118.197 131.306 120.909 113.534 121.129 108.481Z" fill="#2F383B"/>
<path d="M142.871 108.481C142.49 100.823 155.784 92.6424 170.047 92.9259C184.303 93.2245 186.158 102.379 186.353 105.889C186.702 114.022 177.986 132.304 161.894 131.815C145.803 131.306 143.091 113.534 142.871 108.481Z" fill="#2F383B"/>
</g>
</g>
<defs>
<filter id="filter0_d_0_8" x="66.7673" y="87.6364" width="130.465" height="51.3032" filterUnits="userSpaceOnUse" color-interpolation-filters="sRGB">
<feFlood flood-opacity="0" result="BackgroundImageFix"/>
<feColorMatrix in="SourceAlpha" type="matrix" values="0 0 0 0 0 0 0 0 0 0 0 0 0 0 0 0 0 0 127 0" result="hardAlpha"/>
<feOffset dy="2"/>
<feColorMatrix type="matrix" values="0 0 0 0 0 0 0 0 0 0 0 0 0 0 0 0 0 0 0.16 0"/>
<feBlend mode="normal" in2="BackgroundImageFix" result="effect1_dropShadow_0_8"/>
<feBlend mode="normal" in="SourceGraphic" in2="effect1_dropShadow_0_8" result="shape"/>
</filter>
</defs>
</svg>
