<svg width="264" height="280" viewBox="0 0 264 280" fill="none" xmlns="http://www.w3.org/2000/svg">
<path fill-rule="evenodd" clip-rule="evenodd" d="M132 36C101.072 36 76 61.0721 76 92V98.1659C70.3246 99.1181 66 104.054 66 110V124C66 130.052 70.4803 135.058 76.3051 135.881C78.3722 155.687 90.7626 172.422 108 180.611V199H104C64.2355 199 32 231.236 32 271V280H232V271C232 231.236 199.764 199 160 199H156V180.611C173.237 172.422 185.628 155.687 187.695 135.881C193.52 135.058 198 130.052 198 124V110C198 104.054 193.675 99.1181 188 98.1659V92C188 61.0721 162.928 36 132 36Z" fill="#D0C6AC"/>
<mask id="mask0_0_9" style="mask-type:luminance" maskUnits="userSpaceOnUse" x="32" y="36" width="200" height="244">
<path fill-rule="evenodd" clip-rule="evenodd" d="M132 36C101.072 36 76 61.0721 76 92V98.1659C70.3246 99.1181 66 104.054 66 110V124C66 130.052 70.4803 135.058 76.3051 135.881C78.3722 155.687 90.7626 172.422 108 180.611V199H104C64.2355 199 32 231.236 32 271V280H232V271C232 231.236 199.764 199 160 199H156V180.611C173.237 172.422 185.628 155.687 187.695 135.881C193.52 135.058 198 130.052 198 124V110C198 104.054 193.675 99.1181 188 98.1659V92C188 61.0721 162.928 36 132 36Z" fill="white"/>
</mask>
<g mask="url(#mask0_0_9)">
<rect y="36" width="264" height="244" fill="#EDB98A"/>
<path fill-rule="evenodd" clip-rule="evenodd" d="M76 130V138C76 168.928 101.072 194 132 194C162.928 194 188 168.928 188 138V130C188 160.928 162.928 186 132 186C101.072 186 76 160.928 76 130Z" fill="black" fill-opacity="0.1"/>
</g>
<path fill-rule="evenodd" clip-rule="evenodd" d="M132.5 235.828C159.838 235.828 182 222.629 182 206.348C182 204.985 181.845 203.644 181.544 202.33C210.784 211.488 232 238.792 232 271.052V280H32V271.052C32 238.397 53.7388 210.82 83.534 202.002C83.1822 203.42 83 204.871 83 206.348C83 222.629 105.162 235.828 132.5 235.828Z" fill="#E6E6E6"/>
<mask id="mask1_0_9" style="mask-type:luminance" maskUnits="userSpaceOnUse" x="32" y="202" width="200" height="78">
<path fill-rule="evenodd" clip-rule="evenodd" d="M132.5 235.828C159.838 235.828 182 222.629 182 206.348C182 204.985 181.845 203.644 181.544 202.33C210.784 211.488 232 238.792 232 271.052V280H32V271.052C32 238.397 53.7388 210.82 83.534 202.002C83.1822 203.42 83 204.871 83 206.348C83 222.629 105.162 235.828 132.5 235.828Z" fill="white"/>
</mask>
<g mask="url(#mask1_0_9)">
<rect y="170" width="264" height="110" fill="#E6E6E6"/>
</g>
<rect width="108" height="44" transform="translate(78 134)" fill="#EDB98A"/>
<path fill-rule="evenodd" clip-rule="evenodd" d="M107 149.609C108.41 159.231 119.062 167 132 167C144.968 167 155.646 159.183 157 148.739C157.101 148.34 156.775 147 154.826 147C134.838 147 119.74 147 109.174 147C107.383 147 106.87 148.24 107 149.609Z" fill="black" fill-opacity="0.7"/>
<mask id="mask2_0_9" style="mask-type:luminance" maskUnits="userSpaceOnUse" x="106" y="147" width="52" height="20">
<path fill-rule="evenodd" clip-rule="evenodd" d="M107 149.609C108.41 159.231 119.062 167 132 167C144.968 167 155.646 159.183 157 148.739C157.101 148.34 156.775 147 154.826 147C134.838 147 119.74 147 109.174 147C107.383 147 106.87 148.24 107 149.609Z" fill="white"/>
</mask>
<g mask="url(#mask2_0_9)">
<rect x="117" y="136" width="31" height="16" rx="5" fill="white"/>
</g>
<path fill-rule="evenodd" clip-rule="evenodd" d="M121 157.5C121 157.522 121 157.545 121.001 157.567C121 157.588 121 157.609 121 157.63V166.5C121 172.851 126.149 178 132.5 178C138.851 178 144 172.851 144 166.5V157.63C144 157.609 144 157.588 143.999 157.567C144 157.545 144 157.522 144 157.5C144 155.567 141.09 154 137.5 154C135.49 154 133.692 154.491 132.5 155.263C131.308 154.491 129.51 154 127.5 154C123.91 154 121 155.567 121 157.5Z" fill="#FF4F6D"/>
<path fill-rule="evenodd" clip-rule="evenodd" d="M120 130C120 134.418 125.373 138 132 138V138C138.627 138 144 134.418 144 130" fill="black" fill-opacity="0.16"/>
<circle cx="106" cy="112" r="6" fill="black" fill-opacity="0.6"/>
<circle cx="158" cy="112" r="6" fill="black" fill-opacity="0.6"/>
<path d="M91.6302 99.1586C95.5451 93.6499 106.278 90.5608 115.523 92.8312C116.596 93.0946 117.679 92.4386 117.942 91.3659C118.206 90.2932 117.55 89.21 116.477 88.9466C105.74 86.31 93.3121 89.887 88.3697 96.8414C87.7299 97.7418 87.941 98.9904 88.8414 99.6303C89.7418 100.27 90.9904 100.059 91.6302 99.1586Z" fill="black" fill-opacity="0.6"/>
<path d="M172.37 99.1586C168.455 93.6499 157.722 90.5608 148.477 92.8312C147.405 93.0946 146.321 92.4386 146.058 91.3659C145.795 90.2932 146.451 89.21 147.523 88.9466C158.26 86.31 170.688 89.887 175.631 96.8414C176.27 97.7418 176.059 98.9904 175.159 99.6303C174.258 100.27 173.01 100.059 172.37 99.1586Z" fill="black" fill-opacity="0.6"/>
<mask id="mask3_0_9" style="mask-type:luminance" maskUnits="userSpaceOnUse" x="0" y="0" width="264" height="280">
<rect width="264" height="280" fill="white"/>
</mask>
<g mask="url(#mask3_0_9)">
<path fill-rule="evenodd" clip-rule="evenodd" d="M64.9959 77.3392C64.3412 81.128 64 85.0241 64 89V137C64 137.974 64.0204 138.943 64.061 139.906C64.0398 140.729 64.0195 141.432 64 142C64.1376 145.68 62.1434 153.795 59.6608 163.897C55.7837 179.673 50.7156 200.296 50.7156 216.446C50.7156 229.461 52.6993 239.291 54.6067 248.743C56.5813 258.528 58.4743 267.908 58 280H105C105 280 104.052 266.791 102.527 253.643C112.578 263.849 125.351 270.476 141.578 270.476C212.126 270.476 219.2 216.649 219.2 205.243C219.2 199.203 214.878 194.358 210.814 189.802C207.202 185.753 203.794 181.933 203.803 177.705C203.812 173.352 204.833 170.31 205.883 167.182C207 163.855 208.15 160.429 208.15 155.22C208.15 149.4 206.718 147.71 205.241 145.965C204.153 144.681 203.04 143.367 202.456 140.354C201.575 135.808 200.593 126.029 200 119.577V89C200 51.4446 169.555 21 132 21C98.5126 21 70.6789 45.2064 65.0419 77.0761C65.0143 77.0255 65 77 65 77C65 77 64.9986 77.1163 64.9959 77.3392ZM132 53C101.9 53 77 77.4005 77 107.5V130.5C77 160.6 101.9 185 132 185C162.1 185 187 160.6 187 130.5V107.5C187 77.4005 162.1 53 132 53Z" fill="#3B6BAD"/>
<mask id="mask4_0_9" style="mask-type:luminance" maskUnits="userSpaceOnUse" x="50" y="21" width="170" height="259">
<path fill-rule="evenodd" clip-rule="evenodd" d="M64.9959 77.3392C64.3412 81.128 64 85.0241 64 89V137C64 137.974 64.0204 138.943 64.061 139.906C64.0398 140.729 64.0195 141.432 64 142C64.1376 145.68 62.1434 153.795 59.6608 163.897C55.7837 179.673 50.7156 200.296 50.7156 216.446C50.7156 229.461 52.6993 239.291 54.6067 248.743C56.5813 258.528 58.4743 267.908 58 280H105C105 280 104.052 266.791 102.527 253.643C112.578 263.849 125.351 270.476 141.578 270.476C212.126 270.476 219.2 216.649 219.2 205.243C219.2 199.203 214.878 194.358 210.814 189.802C207.202 185.753 203.794 181.933 203.803 177.705C203.812 173.352 204.833 170.31 205.883 167.182C207 163.855 208.15 160.429 208.15 155.22C208.15 149.4 206.718 147.71 205.241 145.965C204.153 144.681 203.04 143.367 202.456 140.354C201.575 135.808 200.593 126.029 200 119.577V89C200 51.4446 169.555 21 132 21C98.5126 21 70.6789 45.2064 65.0419 77.0761C65.0143 77.0255 65 77 65 77C65 77 64.9986 77.1163 64.9959 77.3392ZM132 53C101.9 53 77 77.4005 77 107.5V130.5C77 160.6 101.9 185 132 185C162.1 185 187 160.6 187 130.5V107.5C187 77.4005 162.1 53 132 53Z" fill="white"/>
</mask>
<g mask="url(#mask4_0_9)">
<rect width="264" height="280" fill="#25557C"/>
<path fill-rule="evenodd" clip-rule="evenodd" d="M192.926 104.96C193.631 101.247 194 97.4162 194 93.5C194 59.5345 166.242 32 132 32C97.7583 32 70 59.5345 70 93.5C70 97.4162 70.369 101.247 71.0744 104.96C72.6587 72.6828 99.3301 47 132 47C164.67 47 191.341 72.6828 192.926 104.96Z" fill="white" fill-opacity="0.5"/>
<path opacity="0.9" fill-rule="evenodd" clip-rule="evenodd" d="M77.0728 104.686C77.0245 105.618 77 106.556 77 107.5V130.5C77 160.6 101.9 185 132 185C162.1 185 187 160.6 187 130.5V107.5C187 106.556 186.976 105.618 186.927 104.686C187.631 108.181 188 111.797 188 115.5V138.5C188 168.6 163.6 193 133.5 193H130.5C100.4 193 76 168.6 76 138.5V115.5C76 111.797 76.3692 108.181 77.0728 104.686ZM186.05 194.144C181.662 201.047 168.146 207.805 151.405 210.756C134.663 213.708 119.651 211.981 113.167 206.995C113.189 207.256 113.223 207.516 113.268 207.775C114.978 217.47 132.695 222.45 152.84 218.898C172.985 215.345 187.931 204.606 186.221 194.911C186.175 194.652 186.118 194.397 186.05 194.144ZM197.66 209.488C195.019 219.085 182.786 229.7 166.104 235.772C149.422 241.844 133.227 241.575 125.035 235.921C125.131 236.259 125.24 236.594 125.361 236.926C129.888 249.363 149.831 253.522 169.905 246.216C189.979 238.909 202.583 222.904 198.056 210.467C197.935 210.135 197.803 209.808 197.66 209.488Z" fill="black" fill-opacity="0.16"/>
</g>
</g>
</svg>
